<?xml version="1.0" encoding="utf-8"?>
<!-- Generator: Adobe Illustrator 23.0.5, SVG Export Plug-In . SVG Version: 6.00 Build 0)  -->
<svg version="1.1" id="Layer_1" xmlns="http://www.w3.org/2000/svg" xmlns:xlink="http://www.w3.org/1999/xlink" x="0px" y="0px"
	 viewBox="0 0 256 256" style="enable-background:new 0 0 256 256;" xml:space="preserve">
<style type="text/css">
	.st0{display:none;fill:#F2F2F2;}
	.st1{clip-path:url(#SVGID_2_);fill:#94C7FF;}
	.st2{clip-path:url(#SVGID_2_);fill:#77AAFF;}
	.st3{display:none;}
	.st4{display:inline;}
	.st5{display:inline;clip-path:url(#SVGID_4_);fill:#FFFFAA;}
	.st6{fill:none;stroke:#77AAFF;stroke-width:10;stroke-miterlimit:10;}
	.st7{fill:#94C7FF;}
</style>
<circle class="st0" cx="128" cy="128" r="128"/>
<g>
	<defs>
		<circle id="SVGID_1_" cx="128" cy="128" r="128"/>
	</defs>
	<use xlink:href="#SVGID_1_"  style="overflow:visible;fill:#F2F2F2;"/>
	<clipPath id="SVGID_2_">
		<use xlink:href="#SVGID_1_"  style="overflow:visible;"/>
	</clipPath>
	<path class="st1" d="M18.75,204.74c1.9-6.26,23.62,3.78,42.77-8.75c24.53-16.05,9.7-47.37,34.04-72.47
		c25.35-26.15,53.11-9.86,71.94-34.88c21.27-28.26,4.28-67.3,19.38-73.64c10.34-4.34,27.49,10.52,37.04,22.9
		c31.82,41.24,31.83,123.03-17.02,171.3c-43.28,42.77-102.35,36.91-109.85,36.04C53.65,240.22,16.16,213.24,18.75,204.74z"/>
	<path class="st2" d="M28.75,214.8c1.9-6.26,23.56,3.78,42.66-8.75c24.47-16.05,9.68-47.38,33.95-72.49
		c25.29-26.16,52.98-9.86,71.77-34.89c21.22-28.27,4.27-67.32,19.34-73.66c13.35-5.62,35.06,20.62,36.95,22.91
		c0,0,19.4,23.37,22.22,67.59c0.39,6.12,0.36,12.84,0.36,12.84c-0.02,3.8-0.15,6.63-0.2,7.74c0,0-0.12,2.49-0.33,4.97
		c-4.88,60.25-30.93,85-30.93,85s-20.56,19.54-74.44,28.07c-0.33,0.05-4.7,0.72-9.75,1.3c-1,0.12-1.66,0.18-2.41,0.25
		c0,0-3,0.26-7,0.33c-0.21,0-0.43,0.01-0.43,0.01s-0.27,0-0.54,0.01c-1.04,0.01-2.24,0.01-2.24,0.01c-2.06,0-3.09,0-4.4-0.02
		c-1.29-0.02-2.59-0.05-4.24-0.11c-4.79-0.17-11.64-0.53-12.22-0.57C96.74,254.67,24.9,227.47,28.75,214.8z"/>
</g>
<g class="st3">
	<defs>
		<path id="SVGID_3_" d="M35.75,225.7c1.95-6.38,24.16,3.86,43.74-8.93c25.09-16.38,9.92-48.35,34.81-73.98
			c25.92-26.69,54.32-10.06,73.58-35.6c21.76-28.85,4.38-68.69,19.82-75.17c10.58-4.43,28.12,10.73,37.89,23.37
			c32.54,42.1,32.55,125.58-17.41,174.86c-44.27,43.66-104.68,37.68-112.35,36.79C71.44,261.91,33.11,234.37,35.75,225.7z"/>
	</defs>
	<clipPath id="SVGID_4_" class="st4">
		<use xlink:href="#SVGID_3_"  style="overflow:visible;"/>
	</clipPath>
	<path class="st5" d="M146.11,123h97.14c1.45,0,2.59-1.19,2.5-2.63c-1.71-26.84-12.4-51.24-29.09-70.23
		c-0.95-1.08-2.62-1.11-3.63-0.1c-4.15,4.15-8.29,8.29-12.44,12.44c-18.75,18.75-37.5,37.5-56.25,56.25
		C143.63,119.45,143.41,120.52,146.11,123z"/>
	<path class="st5" d="M133,146.11v97.14c0,1.45,1.19,2.59,2.63,2.5c26.84-1.71,51.24-12.4,70.23-29.09c1.08-0.95,1.11-2.62,0.1-3.63
		l-68.69-68.69C135.69,142.76,133,143.88,133,146.11z"/>
	<path class="st5" d="M144.34,137.27l68.69,68.69c1.01,1.01,2.68,0.98,3.63-0.1c16.69-18.99,27.38-43.39,29.09-70.23
		c0.09-1.45-1.05-2.63-2.5-2.63h-97.14C143.88,133,142.76,135.69,144.34,137.27z"/>
	<path class="st5" d="M118.73,144.34l-68.69,68.69c-1.01,1.01-0.98,2.68,0.1,3.63c18.99,16.69,43.39,27.37,70.23,29.09
		c1.45,0.09,2.63-1.05,2.63-2.5v-97.14C123,143.88,120.31,142.76,118.73,144.34z"/>
</g>
<path class="st6" d="M30.16,118c0-48.51,39.33-87.84,87.84-87.84"/>
<circle class="st7" cx="68.35" cy="71.12" r="10"/>
<circle class="st7" cx="82.38" cy="61.12" r="5"/>
<circle class="st7" cx="58.35" cy="85.97" r="5"/>
</svg>
